<mxfile host="Electron" agent="Mozilla/5.0 (Windows NT 10.0; Win64; x64) AppleWebKit/537.36 (KHTML, like Gecko) draw.io/24.7.17 Chrome/128.0.6613.36 Electron/32.0.1 Safari/537.36" version="24.7.17">
  <diagram name="PÃ¡gina-1" id="tDAYitjnHXMxwxpiOxf6">
    <mxGraphModel dx="607" dy="367" grid="1" gridSize="10" guides="1" tooltips="1" connect="1" arrows="1" fold="1" page="1" pageScale="1" pageWidth="827" pageHeight="1169" math="0" shadow="0">
      <root>
        <mxCell id="0" />
        <mxCell id="1" parent="0" />
        <mxCell id="CuZUhdLgPDa7CTpXMoSr-12" value="" style="group" vertex="1" connectable="0" parent="1">
          <mxGeometry x="190" y="310" width="270" height="60" as="geometry" />
        </mxCell>
        <mxCell id="CuZUhdLgPDa7CTpXMoSr-7" value="" style="endArrow=classic;html=1;rounded=0;" edge="1" parent="CuZUhdLgPDa7CTpXMoSr-12">
          <mxGeometry width="50" height="50" relative="1" as="geometry">
            <mxPoint y="50" as="sourcePoint" />
            <mxPoint x="270" y="50" as="targetPoint" />
          </mxGeometry>
        </mxCell>
        <mxCell id="CuZUhdLgPDa7CTpXMoSr-8" value="P" style="rounded=0;whiteSpace=wrap;html=1;fillColor=#f8cecc;strokeColor=#000000;" vertex="1" parent="CuZUhdLgPDa7CTpXMoSr-12">
          <mxGeometry x="10" y="10" width="80" height="40" as="geometry" />
        </mxCell>
        <mxCell id="CuZUhdLgPDa7CTpXMoSr-9" value="H" style="rounded=0;whiteSpace=wrap;html=1;fillColor=#dae8fc;strokeColor=#000000;" vertex="1" parent="CuZUhdLgPDa7CTpXMoSr-12">
          <mxGeometry x="90" y="10" width="120" height="40" as="geometry" />
        </mxCell>
        <mxCell id="CuZUhdLgPDa7CTpXMoSr-10" value="P" style="rounded=0;whiteSpace=wrap;html=1;fillColor=#f8cecc;strokeColor=#000000;" vertex="1" parent="CuZUhdLgPDa7CTpXMoSr-12">
          <mxGeometry x="210" y="10" width="40" height="40" as="geometry" />
        </mxCell>
        <mxCell id="CuZUhdLgPDa7CTpXMoSr-11" value="" style="endArrow=none;html=1;rounded=0;" edge="1" parent="CuZUhdLgPDa7CTpXMoSr-12">
          <mxGeometry width="50" height="50" relative="1" as="geometry">
            <mxPoint x="10" y="60" as="sourcePoint" />
            <mxPoint x="10" as="targetPoint" />
          </mxGeometry>
        </mxCell>
        <mxCell id="CuZUhdLgPDa7CTpXMoSr-13" value="" style="group" vertex="1" connectable="0" parent="1">
          <mxGeometry x="190" y="190" width="270" height="60" as="geometry" />
        </mxCell>
        <mxCell id="CuZUhdLgPDa7CTpXMoSr-1" value="" style="endArrow=classic;html=1;rounded=0;" edge="1" parent="CuZUhdLgPDa7CTpXMoSr-13">
          <mxGeometry width="50" height="50" relative="1" as="geometry">
            <mxPoint y="50" as="sourcePoint" />
            <mxPoint x="270" y="50" as="targetPoint" />
          </mxGeometry>
        </mxCell>
        <mxCell id="CuZUhdLgPDa7CTpXMoSr-3" value="P" style="rounded=0;whiteSpace=wrap;html=1;fillColor=#f8cecc;strokeColor=#000000;" vertex="1" parent="CuZUhdLgPDa7CTpXMoSr-13">
          <mxGeometry x="10" y="10" width="20" height="40" as="geometry" />
        </mxCell>
        <mxCell id="CuZUhdLgPDa7CTpXMoSr-4" value="H" style="rounded=0;whiteSpace=wrap;html=1;fillColor=#dae8fc;strokeColor=#000000;" vertex="1" parent="CuZUhdLgPDa7CTpXMoSr-13">
          <mxGeometry x="30" y="10" width="140" height="40" as="geometry" />
        </mxCell>
        <mxCell id="CuZUhdLgPDa7CTpXMoSr-5" value="P" style="rounded=0;whiteSpace=wrap;html=1;fillColor=#f8cecc;strokeColor=#000000;" vertex="1" parent="CuZUhdLgPDa7CTpXMoSr-13">
          <mxGeometry x="170" y="10" width="80" height="40" as="geometry" />
        </mxCell>
        <mxCell id="CuZUhdLgPDa7CTpXMoSr-6" value="" style="endArrow=none;html=1;rounded=0;" edge="1" parent="CuZUhdLgPDa7CTpXMoSr-13">
          <mxGeometry width="50" height="50" relative="1" as="geometry">
            <mxPoint x="10" y="60" as="sourcePoint" />
            <mxPoint x="10" as="targetPoint" />
          </mxGeometry>
        </mxCell>
      </root>
    </mxGraphModel>
  </diagram>
</mxfile>
